<svg xmlns="http://www.w3.org/2000/svg" width="16" height="16" data-abp-filters-channel="7398a887-440f-438f-b76b-ded83cd4ff45"><path fill="none" stroke="#8eef97" stroke-linecap="round" stroke-linejoin="round" d="M 6.975 3.025 c 1.35 1.575 0 3.15 0 3.15 m 0.9 -4.05 c 2.025 2.475 0 4.95 0 4.95" paint-order="markers stroke fill" stroke-width=".7"/><path fill="#8eef97" d="M 6.006 1.45 A 0.3 0.3 90 0 0 5.76 1.54 L 4.05 3.25 H 3.204 C 2.925 3.25 2.7 3.451 2.7 3.7 V 5.5 C 2.7 5.749 2.925 5.95 3.204 5.95 H 4.05 L 5.76 7.66 C 5.958 7.861 6.3 7.72 6.3 7.438 V 1.768 A 0.318 0.318 90 0 0 6.006 1.45 M 1 11 A 2 2 0 0 0 5 11 A 2 2 0 0 0 1 11 M 7 10 A 4 4 0 0 1 7 12 H 13.997 A 1 1 0 0 0 13.997 10 Z"/></svg>